#!OML:ASF Y:\EmotionMaleHayes\Project 1\Capture day 1\Session 1\Male1.ASF
:FULLY-SPECIFIED
:DEGREES
238
root -30.6522 17.0343 -0.181478 60.9999 88.0541 61.7569
lowerback 4.507 2.28621 -8.63282
upperback 1.49177 2.70729 -1.89157
thorax -1.28198 1.38622 2.71419
lowerneck -21.2555 0.112432 2.46735
upperneck 25.3113 -0.615788 0.5684
head 11.8286 0.142673 -0.281676
rclavicle -1.63997e-014 2.14687e-014
rhumerus -34.1727 7.93963 -93.0945
rradius 31.754
rwrist 7.25339
rhand -8.88358 -30.2963
rfingers 7.12502
rthumb 17.0585 -59.5674
lclavicle -1.63997e-014 2.14687e-014
lhumerus -29.7086 -4.4083 87.0362
lradius 20.7082
lwrist -21.0763
lhand -15.685 -27.1172
lfingers 7.12502
lthumb 10.504 2.60035
rfemur 4.51016 -2.93785 9.64732
rtibia 7.75667
rfoot -16.2818 -4.35185
rtoes 9.1971
lfemur 9.12502 5.27758 -19.2527
ltibia -0.312924
lfoot -10.1321 1.49755
ltoes -3.95531
239
root -30.6447 17.0325 -0.163905 65.7343 87.9767 66.4737
lowerback 4.47544 2.23435 -8.70563
upperback 1.48999 2.63942 -1.92906
thorax -1.25976 1.35227 2.72147
lowerneck -21.0524 0.112654 2.21322
upperneck 25.0326 -0.610271 0.871896
head 11.6837 0.154609 -0.12574
rclavicle -4.67144e-015 -7.95139e-016
rhumerus -34.0798 7.96893 -93.0981
rradius 31.8874
rwrist 7.05923
rhand -8.58443 -30.6301
rfingers 7.12502
rthumb 17.3464 -59.876
lclavicle -4.67144e-015 -7.95139e-016
lhumerus -29.7108 -3.97015 86.8925
lradius 20.6303
lwrist -21.0475
lhand -14.3906 -27.4085
lfingers 7.12502
lthumb 11.7524 2.24181
rfemur 4.49947 -2.99145 9.52178
rtibia 7.8452
rfoot -16.4611 -4.34063
rtoes 9.58644
lfemur 9.10953 5.0565 -19.4302
ltibia -0.311802
lfoot -10.0568 1.59807
ltoes -4.39037
240
root -30.6329 17.0303 -0.152898 66.4185 87.8798 67.1092
lowerback 4.39999 2.23054 -8.65891
upperback 1.43794 2.64091 -1.99154
thorax -1.26703 1.35477 2.63261
lowerneck -20.5901 0.204024 2.07875
upperneck 24.7709 -0.460124 1.0321
head 11.4951 0.225942 -0.0209186
rclavicle 1.19271e-014 7.95139e-015
rhumerus -34.1355 7.82827 -93.1082
rradius 32.0092
rwrist 7.17302
rhand -8.43944 -30.7879
rfingers 7.12502
rthumb 17.486 -60.0215
lclavicle 1.19271e-014 7.95139e-015
lhumerus -29.7068 -3.74351 86.7816
lradius 20.4105
lwrist -20.9055
lhand -13.9662 -27.7418
lfingers 7.12502
lthumb 12.1617 1.88472
rfemur 4.45547 -3.17776 9.41176
rtibia 7.95382
rfoot -16.5295 -4.21344
rtoes 8.99738
lfemur 9.12262 4.85129 -19.6094
ltibia -0.406058
lfoot -10.0128 1.88001
ltoes -4.78626
241
root -30.6278 17.0284 -0.143043 67.7583 88.3088 68.4101
lowerback 4.36872 2.1718 -8.19213
upperback 1.42529 2.58125 -1.8482
thorax -1.24421 1.32173 2.52782
lowerneck -20.9489 0.142829 2.38263
upperneck 25.0707 -0.566894 0.691724
head 11.677 0.16814 -0.213872
rclavicle 2.61402e-014 -1.90833e-014
rhumerus -34.19 7.79062 -93.0189
rradius 32.1642
rwrist 7.28202
rhand -8.62597 -30.8293
rfingers 7.12502
rthumb 17.3065 -60.0788
lclavicle 2.61402e-014 -1.90833e-014
lhumerus -29.9283 -3.94259 87.0191
lradius 20.3697
lwrist -21.1642
lhand -14.62 -27.7768
lfingers 7.12502
lthumb 11.5312 1.88597
rfemur 4.51927 -3.44796 9.88868
rtibia 7.93429
rfoot -16.5336 -4.22732
rtoes 8.42297
lfemur 9.04977 4.53164 -19.2286
ltibia -0.313921
lfoot -10.1697 2.0304
ltoes -5.07101
242
root -30.6124 17.0338 -0.125255 69.4638 88.1803 70.1799
lowerback 4.34946 2.22262 -8.32611
upperback 1.43691 2.64678 -1.85574
thorax -1.23336 1.35419 2.59082
lowerneck -20.3131 0.0868091 2.09284
upperneck 24.6299 -0.550123 0.78392
head 11.3851 0.151336 -0.129436
rclavicle -2.70347e-014 -4.77083e-015
rhumerus -34.1798 7.62683 -92.9374
rradius 32.2617
rwrist 7.35251
rhand -8.68663 -31.042
rfingers 7.12502
rthumb 17.2481 -60.2965
lclavicle -2.70347e-014 -4.77083e-015
lhumerus -30.2091 -4.31487 87.2521
lradius 20.4469
lwrist -21.0633
lhand -14.697 -27.4605
lfingers 7.12502
lthumb 11.457 2.20644
rfemur 4.70546 -3.50775 9.78201
rtibia 7.84824
rfoot -16.4974 -4.18578
rtoes 8.0715
lfemur 9.24397 4.48085 -19.361
ltibia -0.411176
lfoot -10.3317 2.03144
ltoes -5.05364
243
root -30.5979 17.0391 -0.0965585 70.7967 87.6215 71.5062
lowerback 4.25942 2.30819 -8.97308
upperback 1.41293 2.74568 -1.9792
thorax -1.23998 1.40699 2.81679
lowerneck -20.3525 -0.0204764 2.03115
upperneck 24.5953 -0.650241 0.65872
head 11.378 0.0822767 -0.181013
rclavicle -2.20651e-014 1.90833e-014
rhumerus -34.1174 7.39664 -92.8443
rradius 32.2963
rwrist 7.17554
rhand -8.43256 -31.1748
rfingers 7.12502
rthumb 17.4926 -60.4078
lclavicle -2.20651e-014 1.90833e-014
lhumerus -30.4058 -4.67293 87.442
lradius 20.4039
lwrist -20.937
lhand -14.9542 -26.9927
lfingers 7.12502
lthumb 11.2089 2.68791
rfemur 4.71536 -3.13894 9.29615
rtibia 7.82299
rfoot -16.5477 -4.38394
rtoes 7.93869
lfemur 9.34724 4.44895 -19.9051
ltibia -0.548398
lfoot -10.3601 2.24469
ltoes -5.30088
244
root -30.5881 17.0421 -0.0723106 71.7326 87.2715 72.4268
lowerback 4.18314 2.31895 -9.35661
upperback 1.38009 2.75312 -2.05767
thorax -1.2448 1.41342 2.94877
lowerneck -20.4089 0.0617706 2.14537
upperneck 24.7807 -0.577798 0.688898
head 11.4602 0.134879 -0.177126
rclavicle -1.73937e-015 2.3059e-014
rhumerus -34.1181 7.34264 -92.8159
rradius 32.3844
rwrist 6.85968
rhand -8.31715 -30.95
rfingers 7.12502
rthumb 17.6037 -60.1731
lclavicle -1.73937e-015 2.3059e-014
lhumerus -30.4332 -4.30304 87.304
lradius 20.1659
lwrist -21.0101
lhand -14.6774 -27.3863
lfingers 7.12502
lthumb 11.4759 2.27955
rfemur 4.71154 -2.83508 9.03079
rtibia 7.80133
rfoot -16.636 -4.58045
rtoes 8.26743
lfemur 9.36291 4.45341 -20.195
ltibia -0.566907
lfoot -10.2902 2.35329
ltoes -5.34258
